<svg xmlns="http://www.w3.org/2000/svg" viewBox="0 0 64 64" fill="none">
  <defs>
    <linearGradient id="bg" x1="12" y1="10" x2="54" y2="56" gradientUnits="userSpaceOnUse">
      <stop stop-color="#11121a" />
      <stop offset="1" stop-color="#261d35" />
    </linearGradient>
    <linearGradient
      id="leaf"
      x1="18"
      y1="12"
      x2="50"
      y2="54"
      gradientUnits="userSpaceOnUse"
    >
      <stop stop-color="#b98bff" />
      <stop offset="0.45" stop-color="#7b58ff" />
      <stop offset="1" stop-color="#7af2a6" />
    </linearGradient>
  </defs>
  <rect x="4" y="4" width="56" height="56" rx="18" fill="url(#bg)" />
  <path
    d="M32 14c4.6 3.7 7.6 9.2 7.6 15.2 0 5.6-2.4 10.5-6.1 14-3.8-3.5-6.1-8.4-6.1-14 0-6 3-11.5 7.6-15.2Z"
    fill="url(#leaf)"
  />
  <path
    d="M20.1 22.4c5.5.9 10.5 4.2 13.6 9.6 2.8 4.8 3.3 10.2 2 15-5.1-.5-10-3.2-12.8-8-3.1-5.3-3.2-11.7-.8-16.6Z"
    fill="url(#leaf)"
  />
  <path
    d="M43.9 22.4c-5.5.9-10.5 4.2-13.6 9.6-2.8 4.8-3.3 10.2-2 15 5.1-.5 10-3.2 12.8-8 3.1-5.3 3.2-11.7.8-16.6Z"
    fill="url(#leaf)"
  />
  <path d="M32 38.5v11.5" stroke="#ddfbe8" stroke-linecap="round" stroke-width="3" />
  <path d="M28.2 50h7.6" stroke="#ddfbe8" stroke-linecap="round" stroke-width="3" />
</svg>
